<svg xmlns="http://www.w3.org/2000/svg" viewBox="0 0 800 800" role="img" aria-labelledby="title desc"><title id="title">WatchTree roots</title><desc id="desc">Original root system representing durable interests</desc><defs><linearGradient id="gold" x1="0" y1="0" x2="1" y2="1"><stop offset="0" stop-color="#F4CB84"/><stop offset="1" stop-color="#D7A96F"/></linearGradient><linearGradient id="violetGlow" x1="0" y1="0" x2="1" y2="1"><stop offset="0" stop-color="#4D3C81"/><stop offset="1" stop-color="#28234F"/></linearGradient><radialGradient id="halo"><stop offset="0" stop-color="#F4CB84" stop-opacity=".58"/><stop offset=".55" stop-color="#D7A96F" stop-opacity=".18"/><stop offset="1" stop-color="#D7A96F" stop-opacity="0"/></radialGradient><filter id="softGlow" x="-80%" y="-80%" width="260%" height="260%"><feGaussianBlur stdDeviation="10"/></filter><filter id="smallGlow" x="-80%" y="-80%" width="260%" height="260%"><feGaussianBlur stdDeviation="4"/></filter></defs><path d="M400 110 C398 270 398 340 400 432" fill="none" stroke="#D7A96F" stroke-width="36" stroke-linecap="round"/><g fill="none" stroke-linecap="round"><path d="M400 420 C341 472 293 518 208 608" stroke="#B98383" stroke-width="22"/><path d="M400 424 C464 475 521 516 611 605" stroke="#7E9DB7" stroke-width="22"/><path d="M390 446 C338 524 336 586 341 706" stroke="#D7A96F" stroke-width="18"/><path d="M409 451 C460 528 462 593 453 706" stroke="#A8C8AC" stroke-width="18"/><path d="M303 518 C263 534 226 551 176 575" stroke="#B98383" stroke-width="10"/><path d="M505 520 C552 544 601 554 651 580" stroke="#7E9DB7" stroke-width="10"/><path d="M342 580 C296 620 275 655 252 710" stroke="#D7A96F" stroke-width="9"/><path d="M459 590 C500 631 523 662 545 711" stroke="#A8C8AC" stroke-width="9"/></g></svg>